<svg width="38" height="38" viewBox="0 0 38 38" fill="none" xmlns="http://www.w3.org/2000/svg">
    <path
        d="M23.2531 1.1875H14.747C12.8761 1.1875 11.3543 2.70928 11.3543 4.58019V20.3567C11.3543 22.227 12.8761 23.7494 14.747 23.7494H15.0391V24.5688C15.0391 25.3899 15.7071 26.0579 16.5282 26.0579H16.5716L16.9789 27.7845C17.2016 28.7262 18.0322 29.3835 18.9994 29.3835C19.9667 29.3835 20.7979 28.7262 21.02 27.7845L21.4273 26.0579H21.4706C22.2918 26.0579 22.9597 25.3899 22.9597 24.5688V23.7494H23.2519C25.1228 23.7494 26.6446 22.2276 26.6446 20.3567V4.58019C26.6446 2.70988 25.1228 1.1875 23.2519 1.1875H23.2531ZM14.747 2.375H23.2531C24.4691 2.375 25.4582 3.36419 25.4582 4.58019V6.48553H12.5412V4.58019C12.5412 3.36419 13.531 2.375 14.747 2.375ZM25.4588 17.4093H12.5418V7.67303H25.4588V17.4093ZM19.8657 27.512C19.7707 27.9152 19.4151 28.196 19.0006 28.196C18.5862 28.196 18.2305 27.9146 18.1355 27.512L17.7923 26.0579H20.2083L19.8657 27.512ZM21.774 24.5688C21.774 24.735 21.6387 24.8704 21.4724 24.8704H16.5288C16.3626 24.8704 16.2272 24.735 16.2272 24.5688V23.7494H21.774V24.5688ZM23.2537 22.5619H14.7476C13.5316 22.5619 12.5424 21.5727 12.5424 20.3567V18.5968H25.4594V20.3567C25.4594 21.5727 24.4697 22.5619 23.2537 22.5619Z"
        fill="black" />
    <path
        d="M19.5144 30.3192C19.3024 29.9517 18.698 29.9517 18.486 30.3192L16.8687 33.1205C16.4239 33.8912 16.4239 34.8115 16.8687 35.5822C17.3134 36.3529 18.1102 36.8125 19.0002 36.8125C19.8903 36.8125 20.6871 36.3529 21.1318 35.5822C21.5771 34.8115 21.5771 33.8912 21.1318 33.1205L19.5144 30.3192ZM20.1034 34.9879C19.873 35.3863 19.4604 35.6244 19.0002 35.6244C18.5401 35.6244 18.1274 35.3863 17.897 34.9879C17.6667 34.5889 17.6667 34.1127 17.897 33.7137L19.0002 31.803L20.1034 33.7137C20.3338 34.1127 20.3338 34.5889 20.1034 34.9879Z"
        fill="black" />
</svg>