<svg width="38" height="38" viewBox="0 0 38 38" fill="none" xmlns="http://www.w3.org/2000/svg">
    <path
        d="M16.6684 14.2727C16.9909 14.2727 17.2523 14.0112 17.2523 13.6887V10.6054C17.2523 10.4072 17.1517 10.2224 16.9852 10.1149L14.4669 8.48875V6.42399C14.4669 5.77985 13.9442 5.25603 13.3015 5.25603H11.934V3.50408C11.934 2.85994 11.4102 2.33612 10.7661 2.33612H9.01424C8.37012 2.33612 7.84633 2.85994 7.84633 3.50408V5.25603H7.47052C6.98323 5.25603 6.54213 5.56285 6.37275 6.01909C5.70469 7.81638 5.17548 9.68267 4.79938 11.5655C4.66438 12.3243 5.77908 12.5414 5.94449 11.7942C6.3086 9.9718 6.82099 8.16568 7.47052 6.42399C9.07876 6.42457 11.6934 6.42358 13.2989 6.42399V8.80669C13.2989 9.00486 13.3996 9.18964 13.5661 9.29714L16.0844 10.9233V13.1047H14.6071C14.3482 13.1047 14.1204 13.2752 14.0471 13.5233C13.6045 15.0232 13.3699 16.5614 13.3203 18.1036H5.28062C5.29983 16.9214 5.36501 15.7523 5.4991 14.628C5.57965 13.8657 4.44266 13.7313 4.33918 14.49C3.9192 18.0318 4.04576 21.7719 4.7013 25.2993C5.08195 27.3592 5.64366 29.3972 6.37076 31.3567C6.59979 31.9824 7.22559 32.1802 7.84634 32.1192C7.84633 32.1192 7.84633 33.8712 7.84633 33.8712C7.84633 34.5153 8.37012 35.0391 9.01424 35.0391H10.7661C11.4102 35.0391 11.934 34.5153 11.934 33.8712V32.1192H13.2989C13.9431 32.1192 14.4669 31.5954 14.4669 30.9513V28.8865L16.9852 27.2603C17.1517 27.1528 17.2523 26.968 17.2523 26.7699V23.6866C17.2523 23.3641 16.9909 23.1026 16.6684 23.1026H15.0494C14.2733 20.2049 14.2733 17.1704 15.0494 14.2727H16.6684ZM9.01424 5.25603V3.50408H10.7661V5.25603H9.01424ZM10.767 33.8712H9.01424V32.1192H10.7664L10.767 33.8712ZM16.0844 24.2705V26.4519L13.5661 28.0781C13.3996 28.1856 13.2989 28.3704 13.2989 28.5686V30.9513L7.46568 30.9501C6.07972 27.2231 5.335 23.2524 5.27728 19.2716C5.27728 19.2716 13.3203 19.2716 13.3203 19.2716C13.3699 20.8138 13.6045 22.3521 14.0471 23.8519C14.1204 24.1 14.3482 24.2705 14.6072 24.2705H16.0844Z"
        fill="#fff" />
    <path
        d="M32.3997 23.3963C32.7168 23.4311 33.0102 23.2058 33.0487 22.8853C33.4686 19.3435 33.3421 15.6034 32.6865 12.0759C32.3059 10.016 31.7442 7.97805 31.0171 6.01852C30.788 5.39285 30.1622 5.19504 29.5415 5.25608C29.5415 5.25603 29.5415 3.50408 29.5415 3.50408C29.5415 2.85994 29.0177 2.33612 28.3736 2.33612H26.6217C25.9776 2.33612 25.4538 2.85994 25.4538 3.50408V5.25603H24.0889C23.4448 5.25603 22.921 5.77985 22.921 6.42399V8.48875L20.4027 10.1149C20.2362 10.2224 20.1355 10.4072 20.1355 10.6054V13.6887C20.1355 14.0112 20.397 14.2727 20.7195 14.2727H22.3384C23.1146 17.1704 23.1146 20.2049 22.3384 23.1026H20.7195C20.397 23.1026 20.1355 23.364 20.1355 23.6866V26.7699C20.1355 26.968 20.2361 27.1528 20.4027 27.2603L22.921 28.8865V30.9513C22.921 31.5954 23.4436 32.1192 24.0863 32.1192H25.4538V33.8712C25.4538 34.5153 25.9776 35.0391 26.6217 35.0391H28.3736C29.0177 35.0391 29.5415 34.5153 29.5415 33.8712V32.1192C30.1544 32.177 30.7903 31.9864 31.0151 31.3561C31.6831 29.5589 32.2124 27.6926 32.5884 25.8098C32.7238 25.0507 31.6062 24.8333 31.4433 25.5811C31.0792 27.4035 30.5668 29.2096 29.9173 30.9513C28.3091 30.9507 25.6944 30.9517 24.0889 30.9513V28.5686C24.0889 28.3704 23.9882 28.1856 23.8217 28.0781L21.3034 26.4519V24.2705H22.7807C23.0396 24.2705 23.2674 24.1 23.3407 23.8519C23.7834 22.3521 24.018 20.8138 24.0676 19.2716H32.1072C32.088 20.4538 32.0228 21.623 31.8887 22.7473C31.8508 23.0675 32.0795 23.3581 32.3997 23.3963ZM28.3736 32.1192V33.8712H26.6217V32.1192H28.3736ZM26.6209 3.50409H28.3736V5.25604H26.6215L26.6209 3.50409ZM21.3034 13.1047V10.9233L23.8217 9.29715C23.9882 9.18965 24.0889 9.00487 24.0889 8.8067V6.424L29.9222 6.42514C31.3081 10.1522 32.0528 14.1229 32.1106 18.1037H24.0676C24.018 16.5614 23.7834 15.0232 23.3407 13.5233C23.2674 13.2752 23.0396 13.1047 22.7807 13.1047H21.3034Z"
        fill="#fff" />
</svg>