<svg width="29" height="29" viewBox="0 0 29 29" fill="none" xmlns="http://www.w3.org/2000/svg">
    <path
        d="M13.0312 3.22241C13.3311 3.22241 13.5742 3.4655 13.5742 3.76538V4.57983C13.5742 4.87969 13.3311 5.1228 13.0312 5.1228C12.7314 5.1228 12.4883 4.87969 12.4883 4.57983V3.76538C12.4883 3.4655 12.7314 3.22241 13.0312 3.22241Z"
        fill="black" />
    <path
        d="M3.39355 13.5388C3.39355 13.2389 3.63664 12.9958 3.93652 12.9958H4.75098C5.05086 12.9958 5.29395 13.2389 5.29395 13.5388C5.29395 13.8387 5.05086 14.0818 4.75098 14.0818H3.93652C3.63664 14.0818 3.39355 13.8387 3.39355 13.5388Z"
        fill="black" />
    <path fill-rule="evenodd" clip-rule="evenodd"
        d="M16.2891 1.59334C16.2891 0.704094 15.559 -0.0621761 14.6218 0.00399012C6.4499 0.580786 0 7.39219 0 15.7105C0 16.1673 0.372476 16.525 0.816842 16.525H7.33448C7.79432 16.525 8.14453 16.1473 8.14453 15.7105C8.14453 11.8556 11.0146 8.67004 14.7343 8.17564C15.5534 8.06678 16.2891 7.39529 16.2891 6.48006V1.59334ZM14.6982 1.08721C14.9575 1.06891 15.2031 1.28309 15.2031 1.59334V6.48006C15.2031 6.7643 14.9611 7.05001 14.5912 7.09918C10.4266 7.65268 7.19423 11.1552 7.06275 15.439H1.08841C1.22681 7.81856 7.18006 1.61788 14.6982 1.08721Z"
        fill="black" />
    <path
        d="M17.3834 3.59047C17.4364 3.29531 17.7186 3.09897 18.0137 3.15194C23.979 4.22227 28.5057 9.43726 28.5057 15.7107C28.5057 22.7577 22.793 28.4704 15.746 28.4704C9.62246 28.4704 4.50753 24.1574 3.27108 18.4039C3.20807 18.1107 3.39466 17.8219 3.68784 17.7589C3.98102 17.6959 4.26977 17.8825 4.33278 18.1757C5.46395 23.4393 10.1449 27.3844 15.746 27.3844C22.1933 27.3844 27.4198 22.158 27.4198 15.7107C27.4198 9.97228 23.2788 5.19991 17.822 4.2208C17.5268 4.16786 17.3305 3.88565 17.3834 3.59047Z"
        fill="black" />
    <path fill-rule="evenodd" clip-rule="evenodd"
        d="M13.3027 15.7107C13.3027 14.3613 14.3967 13.2673 15.7461 13.2673C17.0955 13.2673 18.1895 14.3613 18.1895 15.7107C18.1895 17.0601 17.0955 18.1541 15.7461 18.1541C14.3967 18.1541 13.3027 17.0601 13.3027 15.7107ZM15.7461 14.3533C14.9964 14.3533 14.3887 14.961 14.3887 15.7107C14.3887 16.4604 14.9964 17.0681 15.7461 17.0681C16.4958 17.0681 17.1035 16.4604 17.1035 15.7107C17.1035 14.961 16.4958 14.3533 15.7461 14.3533Z"
        fill="black" />
    <path fill-rule="evenodd" clip-rule="evenodd"
        d="M15.7461 10.824C13.0472 10.824 10.8594 13.0118 10.8594 15.7107C10.8594 18.4095 13.0472 20.5974 15.7461 20.5974C18.4449 20.5974 20.6328 18.4095 20.6328 15.7107C20.6328 13.0118 18.4449 10.824 15.7461 10.824ZM11.9453 15.7107C11.9453 13.6116 13.647 11.9099 15.7461 11.9099C17.8452 11.9099 19.5469 13.6116 19.5469 15.7107C19.5469 17.8098 17.8452 19.5115 15.7461 19.5115C13.647 19.5115 11.9453 17.8098 11.9453 15.7107Z"
        fill="black" />
</svg>