<svg width="15" height="15" viewBox="0 0 15 15" fill="none" xmlns="http://www.w3.org/2000/svg">
    <path
        d="M5.27642 0.586182V1.75877H8.79419V0.586182H9.96678V1.75877H12.312C12.6358 1.75877 12.8982 2.02127 12.8982 2.34506V11.7258C12.8982 12.0496 12.6358 12.3121 12.312 12.3121H1.75866C1.43486 12.3121 1.17236 12.0496 1.17236 11.7258V2.34506C1.17236 2.02127 1.43486 1.75877 1.75866 1.75877H4.10383V0.586182H5.27642ZM11.7257 6.44912H2.34495V11.1395H11.7257V6.44912ZM4.10383 2.93136H2.34495V5.27654H11.7257V2.93136H9.96678V4.10395H8.79419V2.93136H5.27642V4.10395H4.10383V2.93136Z"
        fill="#8C8C8C" />
</svg>