<svg width="23" height="17" viewBox="0 0 23 17" fill="none" xmlns="http://www.w3.org/2000/svg">
    <path
        d="M40.4565 4.3063L36.1544 3.69193C35.3699 3.21003 34.5558 2.77863 33.7165 2.40006C30.9446 1.14453 27.9362 0.496663 24.893 0.500013H24.1456C20.5543 0.50259 17.0204 1.40378 13.8661 3.12138L11.6949 4.30578C9.15345 4.33439 6.66094 5.01035 4.45293 6.26897C3.55561 6.78361 3.00155 7.7384 3 8.77257V12.5332C3 12.8832 3.28347 13.1667 3.63344 13.1667H5.76001C6.45169 15.1399 8.61202 16.179 10.5853 15.4873C11.6715 15.1067 12.5253 14.2526 12.9059 13.1667H29.8267C30.5184 15.1399 32.6787 16.179 34.652 15.4873C35.7379 15.1067 36.592 14.2526 36.9726 13.1667H37.1999C37.2805 13.1667 37.3604 13.1515 37.4354 13.1216L39.4867 12.2985C40.4031 11.9356 41.0033 11.0486 41 10.0634V4.93329C41 4.61838 40.7683 4.35114 40.4565 4.3063ZM11.8153 12.4067C11.5352 13.7774 10.1969 14.6616 8.82617 14.3815C7.45518 14.1014 6.571 12.7631 6.85113 11.3921C7.13151 10.0214 8.46977 9.13722 9.84049 9.41734C11.02 9.6583 11.8668 10.6961 11.8666 11.9001C11.8666 12.0701 11.8493 12.24 11.8153 12.4067ZM23.2666 11.9001H13.1332C13.1332 9.80132 11.4321 8.09996 9.33333 8.09996C7.23459 8.09996 5.53323 9.80132 5.53323 11.9001H4.26661V8.77257C4.26739 8.19248 4.57818 7.65671 5.08173 7.3686C7.14852 6.18857 9.48692 5.5675 11.8666 5.56673H23.2666V11.9001ZM23.2666 4.30012H14.3506L14.4727 4.23337C17.1804 2.76188 20.1881 1.92769 23.2666 1.79446V4.30012ZM24.5332 1.76663H24.8917C27.444 1.76379 29.9731 2.24828 32.3437 3.19431L31.2379 4.30012H24.5332V1.76663ZM35.882 12.4067C35.6019 13.7774 34.2636 14.6616 32.8926 14.3815C31.5219 14.1014 30.6377 12.7631 30.9178 11.3921C31.198 10.0214 32.5365 9.13722 33.9072 9.41734C35.0867 9.6583 35.9335 10.6961 35.9333 11.9001C35.9333 12.0701 35.916 12.24 35.882 12.4067ZM39.7334 6.19991H37.8333V7.46678H39.7334V10.0634C39.7349 10.5301 39.4504 10.9502 39.0164 11.1215L37.1999 11.8511C37.1999 11.7929 37.1924 11.7351 37.1885 11.6769C37.1847 11.6186 37.1834 11.5504 37.1772 11.487C37.1708 11.4236 37.1581 11.3602 37.1481 11.297C37.1378 11.2336 37.1303 11.1702 37.1177 11.1128C37.105 11.0551 37.0865 10.9911 37.07 10.9308C37.0535 10.8708 37.0409 10.81 37.0218 10.751C37.003 10.6922 36.9801 10.6358 36.9587 10.578C36.937 10.5206 36.9174 10.461 36.8953 10.4038C36.8731 10.3469 36.8432 10.2951 36.8167 10.2412C36.7901 10.1874 36.7641 10.1283 36.7345 10.074C36.7046 10.0196 36.6711 9.97321 36.6425 9.9227C36.6141 9.87193 36.5793 9.81421 36.5433 9.76241C36.5069 9.71035 36.4734 9.66938 36.4386 9.62247C36.4038 9.57557 36.3644 9.52042 36.3239 9.47172C36.2835 9.42301 36.2456 9.38487 36.2062 9.34493C36.167 9.30524 36.1232 9.25138 36.0796 9.20706C36.0358 9.16273 35.9928 9.12768 35.9492 9.08851C35.9054 9.04934 35.8585 9.00296 35.8103 8.96172C35.7624 8.92075 35.7134 8.88905 35.6655 8.85297C35.6173 8.81689 35.5691 8.77824 35.5186 8.74448C35.4679 8.71098 35.4109 8.68134 35.3565 8.64578C35.3019 8.61021 35.2576 8.58238 35.2063 8.55532C35.155 8.52801 35.0911 8.4994 35.0328 8.47157C34.9746 8.44374 34.929 8.419 34.8751 8.39632C34.8213 8.37338 34.7483 8.34942 34.6852 8.32674C34.6218 8.3038 34.5806 8.28602 34.5267 8.26901C34.4546 8.24685 34.3806 8.23087 34.3069 8.21258C34.2587 8.20124 34.2126 8.18603 34.1639 8.17598C34.086 8.16 34.0062 8.15124 33.927 8.13965C33.8801 8.13346 33.8353 8.12315 33.7884 8.11877C33.6616 8.10614 33.5351 8.09919 33.4021 8.09919C31.3041 8.10125 29.6041 9.80132 29.602 11.8993H24.5335V5.56647H31.5C31.668 5.56647 31.8291 5.49973 31.9476 5.38093L33.59 3.73858C34.2793 4.06664 34.9496 4.43335 35.5977 4.83691C35.6725 4.88356 35.756 4.91422 35.8433 4.92685L39.7334 5.4822V6.19991Z"
        fill="black" />
</svg>