<svg width="20" height="17" viewBox="0 0 20 17" fill="none" xmlns="http://www.w3.org/2000/svg">
    <path
        d="M19.4565 4.40518L15.1544 3.79081C14.3699 3.3089 13.5558 2.87751 12.7165 2.49894C9.94464 1.24341 6.9362 0.59554 3.89298 0.59889H3.14564C-0.445726 0.601467 -3.97962 1.50266 -7.13392 3.22025L-9.30507 4.40466C-11.8465 4.43327 -14.3391 5.10922 -16.5471 6.36785C-17.4444 6.88248 -17.9985 7.83728 -18 8.87144V12.6321C-18 12.9821 -17.7165 13.2656 -17.3666 13.2656H-15.24C-14.5483 15.2388 -12.388 16.2779 -10.4147 15.5862C-9.32852 15.2055 -8.47475 14.3515 -8.09412 13.2656H8.82672C9.51839 15.2388 11.6787 16.2779 13.652 15.5862C14.7379 15.2055 15.592 14.3515 15.9726 13.2656H16.1999C16.2805 13.2656 16.3604 13.2503 16.4354 13.2205L18.4867 12.3973C19.4031 12.0345 20.0033 11.1475 20 10.1623V5.03217C20 4.71726 19.7683 4.45002 19.4565 4.40518ZM-9.18472 12.5056C-9.46485 13.8763 -10.8031 14.7605 -12.1738 14.4804C-13.5448 14.2002 -14.429 12.862 -14.1489 11.491C-13.8685 10.1203 -12.5302 9.23609 -11.1595 9.51622C-9.98 9.75717 -9.13318 10.7949 -9.13344 11.9989C-9.13344 12.169 -9.15071 12.3389 -9.18472 12.5056ZM2.26661 11.9989H-7.86683C-7.86683 9.9002 -9.56793 8.19884 -11.6667 8.19884C-13.7654 8.19884 -15.4668 9.9002 -15.4668 11.9989H-16.7334V8.87144C-16.7326 8.29135 -16.4218 7.75559 -15.9183 7.46747C-13.8515 6.28745 -11.5131 5.66638 -9.13344 5.66561H2.26661V11.9989ZM2.26661 4.39899H-6.64943L-6.52728 4.33225C-3.81959 2.86076 -0.811924 2.02657 2.26661 1.89334V4.39899ZM3.53322 1.8655H3.89169C6.44398 1.86267 8.97309 2.34715 11.3437 3.29318L10.2379 4.39899H3.53322V1.8655ZM14.882 12.5056C14.6019 13.8763 13.2636 14.7605 11.8926 14.4804C10.5219 14.2002 9.63771 12.862 9.91783 11.491C10.198 10.1203 11.5365 9.23609 12.9072 9.51622C14.0867 9.75717 14.9335 10.7949 14.9333 11.9989C14.9333 12.169 14.916 12.3389 14.882 12.5056ZM18.7334 6.29879H16.8333V7.56566H18.7334V10.1623C18.7349 10.629 18.4504 11.049 18.0164 11.2204L16.1999 11.95C16.1999 11.8917 16.1924 11.834 16.1885 11.7758C16.1847 11.7175 16.1834 11.6492 16.1772 11.5858C16.1708 11.5224 16.1581 11.459 16.1481 11.3959C16.1378 11.3325 16.1303 11.2691 16.1177 11.2117C16.105 11.1539 16.0865 11.09 16.07 11.0297C16.0535 10.9697 16.0409 10.9089 16.0218 10.8498C16.003 10.7911 15.9801 10.7346 15.9587 10.6769C15.937 10.6194 15.9174 10.5599 15.8953 10.5027C15.8731 10.4458 15.8432 10.394 15.8167 10.3401C15.7901 10.2862 15.7641 10.2272 15.7345 10.1728C15.7046 10.1185 15.6711 10.0721 15.6425 10.0216C15.6141 9.97081 15.5793 9.91308 15.5433 9.86129C15.5069 9.80923 15.4734 9.76825 15.4386 9.72135C15.4038 9.67445 15.3644 9.6193 15.3239 9.57059C15.2835 9.52189 15.2456 9.48375 15.2062 9.4438C15.167 9.40412 15.1232 9.35026 15.0796 9.30593C15.0358 9.26161 14.9928 9.22656 14.9492 9.18739C14.9054 9.14822 14.8585 9.10183 14.8103 9.0606C14.7624 9.01962 14.7134 8.98793 14.6655 8.95185C14.6173 8.91577 14.5691 8.87711 14.5186 8.84335C14.4679 8.80985 14.4109 8.78022 14.3565 8.74465C14.3019 8.70909 14.2576 8.68126 14.2063 8.6542C14.155 8.62688 14.0911 8.59828 14.0328 8.57045C13.9746 8.54261 13.929 8.51787 13.8751 8.4952C13.8213 8.47226 13.7483 8.44829 13.6852 8.42562C13.6218 8.40268 13.5806 8.3849 13.5267 8.36789C13.4546 8.34573 13.3806 8.32975 13.3069 8.31145C13.2587 8.30011 13.2126 8.28491 13.1639 8.27486C13.086 8.25888 13.0062 8.25012 12.927 8.23852C12.8801 8.23234 12.8353 8.22203 12.7884 8.21765C12.6616 8.20502 12.5351 8.19806 12.4021 8.19806C10.3041 8.20013 8.60406 9.9002 8.602 11.9982H3.53348V5.66535H10.5C10.668 5.66535 10.8291 5.5986 10.9476 5.4798L12.59 3.83746C13.2793 4.16551 13.9496 4.53223 14.5977 4.93579C14.6725 4.98243 14.756 5.0131 14.8433 5.02573L18.7334 5.58108V6.29879Z"
        fill="black" />

</svg>