<svg width="31" height="31" viewBox="0 0 31 31" fill="none" xmlns="http://www.w3.org/2000/svg">
    <path
        d="M22.7068 1.97449C19.4405 1.97449 16.7833 4.63171 16.7833 7.89794C16.7833 11.1642 19.4405 13.8214 22.7068 13.8214C25.973 13.8214 28.6302 11.1642 28.6302 7.89794C28.6302 4.63171 25.973 1.97449 22.7068 1.97449ZM27.6182 8.39156C27.5193 9.38287 27.1258 10.2886 26.527 11.02L25.8482 10.3412L25.1501 11.0393L25.8289 11.7181C25.0974 12.317 24.1918 12.7105 23.2004 12.8093V11.8469H22.2132V12.8094C21.2219 12.7105 20.3162 12.317 19.5847 11.7181L20.2635 11.0393L19.5655 10.3413L18.8867 11.0201C18.2878 10.2886 17.8943 9.38293 17.7954 8.39162H18.7578V7.40438H17.7953C17.8942 6.41306 18.2877 5.50733 18.8866 4.77591L19.5654 5.4547L20.2634 4.75666L19.5846 4.07787C20.3161 3.47898 21.2218 3.08544 22.2131 2.9866V3.94897H23.2003V2.98647C24.1916 3.08538 25.0974 3.47886 25.8288 4.07774L25.15 4.75653L25.848 5.45458L26.5268 4.77579C27.1257 5.50727 27.5193 6.41294 27.6181 7.40425H26.6557V8.3915H27.6182V8.39156Z"
        fill="black" />
    <path
        d="M23.7946 6.89465C23.5238 6.60126 23.1364 6.41707 22.7067 6.41707C22.4783 6.41707 22.2619 6.46909 22.0686 6.56177L21.0812 5.5744L20.3832 6.27244L21.3705 7.25981C21.2778 7.45318 21.2258 7.66958 21.2258 7.89794C21.2258 8.71451 21.8901 9.3788 22.7067 9.3788C23.5232 9.3788 24.1875 8.71451 24.1875 7.89794C24.1875 7.8656 24.1861 7.83364 24.1841 7.8018L26.3564 6.87077L25.9675 5.96338L23.7946 6.89465ZM22.7067 8.39156C22.4345 8.39156 22.213 8.17011 22.213 7.89794C22.213 7.62577 22.4345 7.40432 22.7067 7.40432C22.9788 7.40432 23.2003 7.62577 23.2003 7.89794C23.2003 8.17011 22.9788 8.39156 22.7067 8.39156Z"
        fill="black" />
    <path
        d="M30.6045 7.89793C30.6045 3.54296 27.0615 0 22.7066 0C18.3516 0 14.8086 3.54296 14.8086 7.89793C14.8086 11.1234 16.7524 13.9029 19.5298 15.128L19.2732 15.8123L18.3355 15.1091C18.0772 14.9153 17.7571 14.8086 17.4342 14.8086H17.298C17.0637 14.8086 16.8419 14.8626 16.644 14.9587L12.7597 11.0744C11.348 9.66263 9.47098 8.88517 7.47447 8.88517C3.35304 8.88517 0 12.2382 0 16.3596V19.6747C0 23.7961 3.35304 27.1491 7.47447 27.1491H11.5227C13.3345 27.1491 14.8086 25.6751 14.8086 23.8632C14.8086 22.9855 14.4668 22.1603 13.8462 21.5396L13.2854 20.9789L14.0258 20.2385L12.0513 18.264L12.5449 17.7703L10.366 15.5914L7.40431 18.5532V23.2002H8.39155V19.9493L9.3788 20.9366L9.87242 20.4429L11.8469 22.4174L12.5873 21.677L13.1481 22.2377C13.5823 22.6719 13.8214 23.2492 13.8214 23.8632C13.8214 25.1307 12.7902 26.1619 11.5227 26.1619H7.47447C3.89745 26.1619 0.987242 23.2517 0.987242 19.6747V16.3596C0.987242 12.7826 3.89745 9.87242 7.47447 9.87242C9.20726 9.87242 10.8363 10.5472 12.0616 11.7725L15.9459 15.6568C15.8499 15.8546 15.7959 16.0765 15.7959 16.3108C15.7959 16.7579 15.9928 17.1785 16.3363 17.4647L18.7256 19.4558L16.7831 20.427V25.9734L18.7576 26.9606V27.1491C18.7576 27.7802 19.439 28.1426 20.2385 28.3505V29.1236C20.2385 29.9678 21.2995 30.6045 22.7066 30.6045C24.1136 30.6045 25.1747 29.9678 25.1747 29.1236V28.3505C25.9741 28.1426 26.6555 27.7802 26.6555 27.1491V17.1872L25.8833 15.128C28.6607 13.9029 30.6045 11.1234 30.6045 7.89793ZM8.59604 18.7576L10.366 16.9876L11.1488 17.7703L9.3788 19.5404L8.59604 18.7576ZM10.5705 19.7448L11.3533 18.962L12.6297 20.2385L11.8469 21.0213L10.5705 19.7448ZM16.7831 16.3108C16.7831 16.0269 17.0141 15.7959 17.298 15.7959H17.4342C17.5448 15.7959 17.6546 15.8325 17.7431 15.8988L18.912 16.7755L18.7576 17.1872V18.1973L16.9684 16.7063C16.8506 16.6082 16.7831 16.464 16.7831 16.3108ZM17.7703 25.3632V21.0372L18.7576 20.5436V25.8569L17.7703 25.3632ZM24.1874 29.1236C24.1874 29.2465 23.6622 29.6173 22.7066 29.6173C21.7509 29.6173 21.2257 29.2465 21.2257 29.1236V28.5342C21.9303 28.6238 22.551 28.63 22.7066 28.63C22.8621 28.63 23.4828 28.6238 24.1874 28.5342V29.1236ZM22.7066 27.6428C20.9902 27.6428 19.9522 27.2884 19.7448 27.0859V17.7703H25.6683V27.0859C25.4609 27.2884 24.4229 27.6428 22.7066 27.6428ZM25.4496 16.7831H19.9635L20.4564 15.4688C21.1699 15.6812 21.925 15.7959 22.7066 15.7959C23.4881 15.7959 24.2433 15.6812 24.9567 15.4688L25.4496 16.7831ZM22.7066 14.8086C18.896 14.8086 15.7959 11.7085 15.7959 7.89793C15.7959 4.08737 18.896 0.987242 22.7066 0.987242C26.5171 0.987242 29.6173 4.08737 29.6173 7.89793C29.6173 11.7085 26.5171 14.8086 22.7066 14.8086Z"
        fill="black" />
</svg>