<svg width="29" height="29" viewBox="0 0 29 29" fill="none" xmlns="http://www.w3.org/2000/svg">
    <g clip-path="url(#clip0_8694_5890)">
        <path
            d="M28.8237 14.4118C28.8237 6.45223 22.3714 0 14.4118 0C6.45223 0 0 6.45223 0 14.4118C0 21.6049 5.2694 27.5682 12.1593 28.6486V18.5774H8.49978V14.4118H12.1593V11.237C12.1593 7.6244 14.3115 5.63023 17.6038 5.63023C19.1816 5.63023 20.8299 5.91206 20.8299 5.91206V9.45844H19.013C17.2238 9.45844 16.6644 10.5687 16.6644 11.7088V14.4118H20.6612L20.0229 18.5774H16.6644V28.6486C23.5543 27.5682 28.8237 21.6049 28.8237 14.4118Z"
            fill="#4676ED" />
        <path
            d="M20.021 18.5775L20.6593 14.412H16.6625V11.709C16.6625 10.5688 17.2197 9.45858 19.0111 9.45858H20.828V5.9122C20.828 5.9122 19.1797 5.63037 17.6019 5.63037C14.3096 5.63037 12.1574 7.62454 12.1574 11.2371V14.412H8.49789V18.5775H12.1574V28.6487C12.8919 28.764 13.6434 28.8238 14.4099 28.8238C15.1764 28.8238 15.928 28.764 16.6625 28.6487V18.5775H20.021Z"
            fill="none" />
    </g>
    <defs>
        <clipPath id="clip0_8694_5890">
            <rect width="28.8237" height="28.8237" fill="nont" />
        </clipPath>
    </defs>
</svg>