<svg width="20" height="19" viewBox="0 0 20 19" fill="none" xmlns="http://www.w3.org/2000/svg">
    <path
        d="M19.6428 7.97028C19.6428 3.57627 15.236 0 9.8214 0C4.40682 0 0 3.57627 0 7.97028C0 11.9095 3.493 15.2104 8.21368 15.8338C8.53395 15.9021 8.9695 16.0452 9.07839 16.3185C9.17661 16.5661 9.14244 16.9547 9.11042 17.2067C9.11042 17.2067 8.99512 17.9006 8.9695 18.0479C8.9268 18.2956 8.77307 19.0194 9.81927 18.5774C10.8676 18.1354 15.4751 15.2467 17.5355 12.8746C18.9596 11.3138 19.6407 9.7296 19.6407 7.97028"
        fill="white" />
    <path
        d="M7.82417 5.8457H7.13454C7.02992 5.8457 6.94238 5.93111 6.94238 6.03573V10.3144C6.94238 10.4191 7.02779 10.5045 7.13454 10.5045H7.82417C7.92879 10.5045 8.01633 10.4191 8.01633 10.3144V6.03573C8.01633 5.93111 7.93093 5.8457 7.82417 5.8457Z"
        fill="#68B82B" />
    <path
        d="M12.5685 5.8457H11.8788C11.7721 5.8457 11.6867 5.93111 11.6867 6.03573V8.57862L9.72454 5.93111C9.72454 5.93111 9.71386 5.9183 9.70959 5.91189C9.70959 5.91189 9.70105 5.90335 9.69892 5.89908C9.69892 5.89908 9.69678 5.89695 9.69465 5.89481C9.69038 5.89267 9.68824 5.8884 9.68397 5.88627C9.68397 5.88627 9.6797 5.88413 9.6797 5.882C9.67543 5.87986 9.6733 5.87773 9.66903 5.87559C9.66903 5.87559 9.66476 5.87346 9.66262 5.87132C9.65835 5.87132 9.65622 5.86705 9.65195 5.86492C9.65195 5.86492 9.64768 5.86492 9.64554 5.86278C9.64127 5.86278 9.63914 5.85851 9.63487 5.85851C9.63273 5.85851 9.6306 5.85851 9.62846 5.85638C9.62419 5.85638 9.62206 5.85424 9.61779 5.85211C9.61565 5.85211 9.61352 5.85211 9.61138 5.85211C9.60711 5.85211 9.60497 5.85211 9.6007 5.84997C9.59857 5.84997 9.5943 5.84997 9.59216 5.84997C9.58789 5.84997 9.58576 5.84997 9.58149 5.84997C9.57722 5.84997 9.57508 5.84997 9.57081 5.84997C9.56868 5.84997 9.56654 5.84997 9.56441 5.84997H8.87478C8.77016 5.84997 8.68262 5.93538 8.68262 6.04V10.3187C8.68262 10.4233 8.76802 10.5087 8.87478 10.5087H9.56441C9.67116 10.5087 9.75657 10.4233 9.75657 10.3187V7.77796L11.7208 10.4297C11.7337 10.449 11.7507 10.4639 11.77 10.4767C11.7742 10.4788 11.7785 10.481 11.7828 10.4831C11.7828 10.4831 11.787 10.4831 11.7892 10.4852C11.7913 10.4852 11.7956 10.4874 11.7977 10.4895C11.7998 10.4895 11.8041 10.4917 11.8063 10.4938C11.8063 10.4938 11.8105 10.4938 11.8127 10.4959C11.8169 10.4959 11.8212 10.4981 11.8255 10.5002C11.8255 10.5002 11.8255 10.5002 11.8276 10.5002C11.8425 10.5045 11.8596 10.5066 11.8767 10.5066H12.5663C12.6731 10.5066 12.7585 10.4212 12.7585 10.3166V6.03786C12.7585 5.93324 12.6731 5.84784 12.5663 5.84784"
        fill="#68B82B" />
    <path
        d="M6.16615 9.43692H4.29368V6.03786C4.29368 5.93324 4.20827 5.8457 4.10152 5.8457H3.41188C3.30726 5.8457 3.21973 5.93111 3.21973 6.03786V10.3166C3.21973 10.3678 3.24108 10.4148 3.2731 10.449C3.2731 10.449 3.2731 10.449 3.27524 10.4511C3.27524 10.4511 3.27524 10.4511 3.27737 10.4532C3.31154 10.4852 3.35851 10.5066 3.40975 10.5066H6.16188C6.2665 10.5066 6.3519 10.4212 6.3519 10.3144V9.62481C6.3519 9.52019 6.2665 9.43265 6.16188 9.43265"
        fill="#68B82B" />
    <path
        d="M16.3718 6.9177C16.4765 6.9177 16.5619 6.8323 16.5619 6.72554V6.03591C16.5619 5.92915 16.4765 5.84375 16.3718 5.84375H13.6197C13.5685 5.84375 13.5215 5.8651 13.4873 5.89713C13.4873 5.89713 13.4873 5.89713 13.4852 5.89713C13.4852 5.89713 13.4831 5.89926 13.4831 5.9014C13.451 5.93556 13.4297 5.98253 13.4297 6.03377V10.3125C13.4297 10.3637 13.451 10.4107 13.4831 10.4449C13.4831 10.4449 13.4831 10.4449 13.4852 10.447C13.4852 10.447 13.4852 10.447 13.4873 10.4491C13.5215 10.4812 13.5685 10.5025 13.6197 10.5025H16.3718C16.4765 10.5025 16.5619 10.4171 16.5619 10.3104V9.62072C16.5619 9.5161 16.4765 9.42856 16.3718 9.42856H14.4994V8.70477H16.3718C16.4765 8.70477 16.5619 8.61936 16.5619 8.51261V7.82298C16.5619 7.71622 16.4765 7.63082 16.3718 7.63082H14.4994V6.90702H16.3718V6.9177Z"
        fill="#68B82B" />
</svg>