<svg width="29" height="29" viewBox="0 0 29 29" fill="none" xmlns="http://www.w3.org/2000/svg">
<g clip-path="url(#clip0_8694_5878)">
<path d="M14.4118 28.8237C22.3713 28.8237 28.8237 22.3713 28.8237 14.4118C28.8237 6.4524 22.3713 0 14.4118 0C6.4524 0 0 6.4524 0 14.4118C0 22.3713 6.4524 28.8237 14.4118 28.8237Z" fill="#68B82B"/>
<path d="M24.1871 13.6666C24.1871 9.27256 19.7803 5.69629 14.3657 5.69629C8.95114 5.69629 4.54432 9.27256 4.54432 13.6666C4.54432 17.6058 8.03732 20.9067 12.758 21.5301C13.0783 21.5984 13.5138 21.7415 13.6227 22.0148C13.7209 22.2624 13.6868 22.651 13.6547 22.903C13.6547 22.903 13.5394 23.5969 13.5138 23.7442C13.4711 23.9919 13.3174 24.7157 14.3636 24.2737C15.4119 23.8317 20.0194 20.943 22.0798 18.5709C23.5039 17.0101 24.185 15.4259 24.185 13.6666" fill="white"/>
<path d="M12.3686 11.542H11.679C11.5744 11.542 11.4869 11.6274 11.4869 11.732V16.0107C11.4869 16.1153 11.5723 16.2008 11.679 16.2008H12.3686C12.4733 16.2008 12.5608 16.1153 12.5608 16.0107V11.732C12.5608 11.6274 12.4754 11.542 12.3686 11.542Z" fill="#68B82B"/>
<path d="M17.1125 11.542H16.4229C16.3161 11.542 16.2307 11.6274 16.2307 11.732V14.2749L14.2686 11.6274C14.2686 11.6274 14.2579 11.6146 14.2536 11.6082C14.2536 11.6082 14.2451 11.5996 14.243 11.5954C14.243 11.5954 14.2408 11.5932 14.2387 11.5911C14.2344 11.589 14.2323 11.5847 14.228 11.5826C14.228 11.5826 14.2237 11.5804 14.2237 11.5783C14.2195 11.5762 14.2173 11.574 14.2131 11.5719C14.2131 11.5719 14.2088 11.5697 14.2067 11.5676C14.2024 11.5676 14.2003 11.5633 14.196 11.5612C14.196 11.5612 14.1917 11.5612 14.1896 11.5591C14.1853 11.5591 14.1832 11.5548 14.1789 11.5548C14.1768 11.5548 14.1746 11.5548 14.1725 11.5527C14.1682 11.5527 14.1661 11.5505 14.1618 11.5484C14.1597 11.5484 14.1576 11.5484 14.1554 11.5484C14.1512 11.5484 14.149 11.5484 14.1447 11.5463C14.1426 11.5463 14.1383 11.5463 14.1362 11.5463C14.1319 11.5463 14.1298 11.5463 14.1255 11.5463C14.1213 11.5463 14.1191 11.5463 14.1149 11.5463C14.1127 11.5463 14.1106 11.5463 14.1085 11.5463H13.4188C13.3142 11.5463 13.2267 11.6317 13.2267 11.7363V16.015C13.2267 16.1196 13.3121 16.205 13.4188 16.205H14.1085C14.2152 16.205 14.3006 16.1196 14.3006 16.015V13.4742L16.2649 16.126C16.2777 16.1452 16.2948 16.1602 16.314 16.173C16.3183 16.1751 16.3225 16.1773 16.3268 16.1794C16.3268 16.1794 16.3311 16.1794 16.3332 16.1815C16.3353 16.1815 16.3396 16.1837 16.3418 16.1858C16.3439 16.1858 16.3482 16.1879 16.3503 16.1901C16.3503 16.1901 16.3546 16.1901 16.3567 16.1922C16.361 16.1922 16.3652 16.1943 16.3695 16.1965C16.3695 16.1965 16.3695 16.1965 16.3716 16.1965C16.3866 16.2008 16.4037 16.2029 16.4208 16.2029H17.1104C17.2171 16.2029 17.3025 16.1175 17.3025 16.0129V11.7341C17.3025 11.6295 17.2171 11.5441 17.1104 11.5441" fill="#68B82B"/>
<path d="M10.7103 15.1332H8.8378V11.7341C8.8378 11.6295 8.7524 11.542 8.64565 11.542H7.95601C7.85139 11.542 7.76385 11.6274 7.76385 11.7341V16.0129C7.76385 16.0641 7.78521 16.1111 7.81723 16.1452C7.81723 16.1452 7.81723 16.1452 7.81937 16.1474C7.81937 16.1474 7.81937 16.1474 7.8215 16.1495C7.85566 16.1815 7.90264 16.2029 7.95388 16.2029H10.706C10.8106 16.2029 10.896 16.1175 10.896 16.0107V15.3211C10.896 15.2165 10.8106 15.1289 10.706 15.1289" fill="#68B82B"/>
<path d="M20.9159 12.614C21.0205 12.614 21.1059 12.5286 21.1059 12.4218V11.7322C21.1059 11.6254 21.0205 11.54 20.9159 11.54H18.1638C18.1125 11.54 18.0656 11.5614 18.0314 11.5934C18.0314 11.5934 18.0314 11.5934 18.0293 11.5934C18.0293 11.5934 18.0271 11.5956 18.0271 11.5977C17.9951 11.6318 17.9738 11.6788 17.9738 11.7301V16.0088C17.9738 16.06 17.9951 16.107 18.0271 16.1412C18.0271 16.1412 18.0271 16.1412 18.0293 16.1433C18.0293 16.1433 18.0293 16.1433 18.0314 16.1454C18.0656 16.1774 18.1125 16.1988 18.1638 16.1988H20.9159C21.0205 16.1988 21.1059 16.1134 21.1059 16.0066V15.317C21.1059 15.2124 21.0205 15.1249 20.9159 15.1249H19.0434V14.4011H20.9159C21.0205 14.4011 21.1059 14.3157 21.1059 14.2089V13.5193C21.1059 13.4125 21.0205 13.3271 20.9159 13.3271H19.0434V12.6033H20.9159V12.614Z" fill="#68B82B"/>
</g>
<defs>
<clipPath id="clip0_8694_5878">
<rect width="28.8237" height="28.8237" fill="white"/>
</clipPath>
</defs>
</svg>
