<svg width="16" height="12" viewBox="0 0 16 12" fill="none" xmlns="http://www.w3.org/2000/svg">
    <path
        d="M10.5845 0C10.9743 0 11.2902 0.315927 11.2902 0.705636V3.66931L14.9689 1.09424C15.1285 0.982493 15.3485 1.02132 15.4602 1.18095C15.5017 1.24025 15.524 1.31089 15.524 1.38328V9.90692C15.524 10.1017 15.366 10.2597 15.1712 10.2597C15.0988 10.2597 15.0281 10.2374 14.9689 10.196L11.2902 7.62087V10.5845C11.2902 10.9743 10.9743 11.2902 10.5845 11.2902H0.705636C0.315927 11.2902 0 10.9743 0 10.5845V0.705636C0 0.315927 0.315927 0 0.705636 0H10.5845ZM9.87891 1.41127H1.41127V9.87891H9.87891V1.41127ZM4.51607 3.40728C4.56975 3.40728 4.62232 3.42259 4.66761 3.45141L7.74062 5.40694C7.87215 5.49063 7.91089 5.66513 7.8272 5.79666C7.80504 5.83145 7.77548 5.86101 7.74062 5.88324L4.66761 7.83877C4.53609 7.92246 4.36164 7.88372 4.27795 7.75219C4.24912 7.70689 4.23382 7.65432 4.23382 7.60062V3.68954C4.23382 3.53366 4.36019 3.40728 4.51607 3.40728ZM14.1127 3.4162L11.2902 5.39177V5.89841L14.1127 7.87398V3.4162Z"
        fill="#F06724" />
</svg>