<svg width="40" height="40" viewBox="0 0 40 40" fill="none" xmlns="http://www.w3.org/2000/svg">
    <path
        d="M19.4397 34.028L32.9478 20.5199C33.0629 20.4058 33.1542 20.27 33.2166 20.1203C33.2789 19.9707 33.311 19.8102 33.311 19.648C33.311 19.4859 33.2789 19.3254 33.2166 19.1758C33.1542 19.0261 33.0629 18.8903 32.9478 18.7762L19.4397 5.26807C19.2096 5.03936 18.8984 4.91098 18.574 4.91098C18.2495 4.91098 17.9383 5.03936 17.7082 5.26807C17.5931 5.38223 17.5018 5.51805 17.4394 5.6677C17.3771 5.81734 17.345 5.97785 17.345 6.13996C17.345 6.30207 17.3771 6.46258 17.4394 6.61222C17.5018 6.76187 17.5931 6.89768 17.7082 7.01184L30.3444 19.648L17.7082 32.2842C17.5931 32.3984 17.5018 32.5342 17.4394 32.6839C17.3771 32.8335 17.345 32.994 17.345 33.1561C17.345 33.3182 17.3771 33.4788 17.4394 33.6284C17.5018 33.778 17.5931 33.9139 17.7082 34.028C17.9383 34.2567 18.2495 34.3851 18.574 34.3851C18.8984 34.3851 19.2096 34.2567 19.4397 34.028Z"
        fill="#3D3A3B"
    />
    <path
        d="M21.5887 20.5199C21.7038 20.4058 21.7951 20.27 21.8575 20.1203C21.9198 19.9707 21.9519 19.8102 21.9519 19.648C21.9519 19.4859 21.9198 19.3254 21.8575 19.1758C21.7951 19.0261 21.7038 18.8903 21.5887 18.7762L8.08057 5.26807C7.85049 5.03936 7.53925 4.91098 7.21483 4.91098C6.89041 4.91098 6.57916 5.03936 6.34908 5.26807C6.23398 5.38223 6.14263 5.51805 6.08028 5.6677C6.01794 5.81734 5.98584 5.97785 5.98584 6.13996C5.98584 6.30207 6.01794 6.46258 6.08028 6.61222C6.14263 6.76187 6.23398 6.89768 6.34908 7.01184L18.9853 19.648L6.34908 32.2842C6.23398 32.3984 6.14263 32.5342 6.08028 32.6839C6.01794 32.8335 5.98584 32.994 5.98584 33.1561C5.98584 33.3182 6.01794 33.4788 6.08028 33.6284C6.14263 33.778 6.23398 33.9139 6.34908 34.028C6.57916 34.2567 6.89041 34.3851 7.21483 34.3851C7.53925 34.3851 7.85049 34.2567 8.08057 34.028L21.5887 20.5199Z"
        fill="#3D3A3B"
    />
</svg>