<svg width="40" height="40" viewBox="0 0 40 40" fill="none" xmlns="http://www.w3.org/2000/svg">
    <path
        d="M19.8565 5.26823L6.34846 18.7763C6.23336 18.8905 6.142 19.0263 6.07966 19.1759C6.01731 19.3256 5.98521 19.4861 5.98521 19.6482C5.98521 19.8103 6.01731 19.9708 6.07966 20.1205C6.142 20.2701 6.23336 20.4059 6.34846 20.5201L19.8565 34.0282C20.0866 34.2569 20.3979 34.3853 20.7223 34.3853C21.0467 34.3853 21.3579 34.2569 21.588 34.0282C21.7031 33.914 21.7945 33.7782 21.8568 33.6285C21.9192 33.4789 21.9513 33.3184 21.9513 33.1563C21.9513 32.9942 21.9192 32.8337 21.8568 32.684C21.7945 32.5344 21.7031 32.3986 21.588 32.2844L8.95183 19.6482L21.588 7.012C21.7031 6.89784 21.7945 6.76202 21.8568 6.61238C21.9192 6.46273 21.9513 6.30223 21.9513 6.14011C21.9513 5.978 21.9192 5.81749 21.8568 5.66785C21.7945 5.51821 21.7031 5.38239 21.588 5.26823C21.3579 5.03951 21.0467 4.91113 20.7223 4.91113C20.3979 4.91113 20.0866 5.03951 19.8565 5.26823Z"
        fill="#3D3A3B"
    />
    <path
        d="M17.7076 18.7763C17.5925 18.8905 17.5011 19.0263 17.4388 19.1759C17.3764 19.3256 17.3443 19.4861 17.3443 19.6482C17.3443 19.8103 17.3764 19.9708 17.4388 20.1205C17.5011 20.2701 17.5925 20.4059 17.7076 20.5201L31.2157 34.0282C31.4458 34.2569 31.757 34.3853 32.0814 34.3853C32.4058 34.3853 32.7171 34.2569 32.9472 34.0282C33.0623 33.914 33.1536 33.7782 33.216 33.6285C33.2783 33.4789 33.3104 33.3184 33.3104 33.1563C33.3104 32.9942 33.2783 32.8337 33.216 32.684C33.1536 32.5344 33.0623 32.3986 32.9472 32.2844L20.311 19.6482L32.9472 7.012C33.0623 6.89784 33.1536 6.76202 33.216 6.61238C33.2783 6.46273 33.3104 6.30223 33.3104 6.14011C33.3104 5.978 33.2783 5.81749 33.216 5.66785C33.1536 5.51821 33.0623 5.38239 32.9472 5.26823C32.7171 5.03951 32.4058 4.91113 32.0814 4.91113C31.757 4.91113 31.4458 5.03951 31.2157 5.26823L17.7076 18.7763Z"
        fill="#3D3A3B"
    />
</svg>