<svg width="10" height="9" viewBox="0 0 10 9" fill="none" xmlns="http://www.w3.org/2000/svg">
    <path
        d="M5.27344 4.83398V7.28833L6.07693 6.48519L6.69841 7.10666L4.83398 8.97108L2.96954 7.10666L3.59102 6.48519L4.39453 7.28833V4.83398H5.27344ZM4.83398 0C6.41312 0 7.71434 1.18987 7.88999 2.72195C8.91466 3.00214 9.66797 3.93996 9.66797 5.05371C9.66797 6.31441 8.70275 7.34968 7.47097 7.46086L7.4711 6.57615C8.21628 6.46937 8.78906 5.82842 8.78906 5.05371C8.78906 4.20425 8.10044 3.51562 7.25098 3.51562C7.15922 3.51562 7.06935 3.52367 6.98234 3.53936C7.01438 3.39003 7.03125 3.23507 7.03125 3.07617C7.03125 1.86266 6.04749 0.878906 4.83398 0.878906C3.62047 0.878906 2.63672 1.86266 2.63672 3.07617C2.63672 3.23507 2.65358 3.39003 2.68596 3.53905C2.59862 3.52367 2.50875 3.51562 2.41699 3.51562C1.56753 3.51562 0.878906 4.20425 0.878906 5.05371C0.878906 5.80091 1.4117 6.42366 2.1181 6.56279L2.19729 6.57624L2.19744 7.46086C0.965461 7.34994 0 6.31459 0 5.05371C0 3.93996 0.753328 3.00214 1.77824 2.72202C1.95364 1.18987 3.25486 0 4.83398 0Z"
        fill="white" />
</svg>