<svg width="36" height="36" viewBox="0 0 36 36" fill="none" xmlns="http://www.w3.org/2000/svg">
    <path
        d="M25.9592 25.6809C23.5004 24.4041 20.7704 23.7376 17.9998 23.7376C15.2292 23.7376 12.4993 24.4041 10.0405 25.6809C9.92336 25.7411 9.78885 25.7583 9.66037 25.7295C9.53189 25.7007 9.41758 25.6278 9.33734 25.5234L0.913901 14.5547C0.70942 14.2902 0.564739 13.9845 0.489834 13.6586C0.414929 13.3328 0.411582 12.9946 0.480025 12.6674C0.548468 12.3401 0.687072 12.0316 0.886279 11.7631C1.08549 11.4946 1.34056 11.2725 1.6339 11.1122C6.65346 8.37159 12.2809 6.93542 17.9998 6.93542C23.7188 6.93542 29.3462 8.37159 34.3658 11.1122C34.6578 11.2727 34.9117 11.4944 35.11 11.7623C35.3084 12.0301 35.4465 12.3376 35.5148 12.6637C35.5832 12.9899 35.5803 13.327 35.5062 13.6519C35.4322 13.9768 35.2887 14.2819 35.0858 14.5462L26.6623 25.515C26.5833 25.6208 26.4695 25.6954 26.3409 25.7257C26.2124 25.7561 26.0772 25.7402 25.9592 25.6809ZM17.9998 22.6125C20.7913 22.6081 23.5468 23.2431 26.0548 24.4687L34.1942 13.86C34.299 13.7243 34.3732 13.5675 34.4117 13.4004C34.4501 13.2333 34.4519 13.0598 34.4169 12.892C34.3818 12.7241 34.3109 12.5658 34.2088 12.428C34.1068 12.2902 33.9761 12.1762 33.8258 12.0937C28.9718 9.44374 23.5301 8.05506 17.9998 8.05506C12.4696 8.05506 7.02789 9.44374 2.1739 12.0937C2.02443 12.1763 1.89453 12.2901 1.79307 12.4275C1.69161 12.5648 1.62099 12.7224 1.58601 12.8896C1.55103 13.0567 1.55253 13.2294 1.59041 13.3959C1.62828 13.5624 1.70164 13.7188 1.80546 13.8543L9.94484 24.4687C12.4529 23.2431 15.2083 22.6081 17.9998 22.6125Z"
        fill="black" />
    <path
        d="M18.0001 27.1772C17.6307 27.1777 17.2652 27.2533 16.9258 27.3994L7.23108 11.5312C7.20044 11.4569 7.15421 11.39 7.09551 11.335C7.03681 11.2801 6.96701 11.2383 6.89082 11.2126C6.81462 11.1869 6.7338 11.1778 6.6538 11.186C6.5738 11.1942 6.49649 11.2194 6.42707 11.26C6.35766 11.3006 6.29775 11.3556 6.25139 11.4213C6.20504 11.4871 6.17331 11.5619 6.15835 11.641C6.14339 11.72 6.14554 11.8013 6.16467 11.8794C6.18379 11.9575 6.21944 12.0306 6.26921 12.0937L16.0061 28.0406C15.5795 28.4974 15.3233 29.0871 15.2805 29.7106C15.2377 30.3341 15.4109 30.9533 15.771 31.464C16.1312 31.9748 16.6562 32.346 17.2578 32.5151C17.8595 32.6842 18.501 32.641 19.0745 32.3926C19.648 32.1443 20.1185 31.706 20.4068 31.1516C20.6951 30.5971 20.7837 29.9602 20.6576 29.3481C20.5315 28.736 20.1984 28.186 19.7145 27.7907C19.2305 27.3953 18.6251 27.1786 18.0001 27.1772ZM18.0001 31.5C17.6834 31.5005 17.3736 31.4071 17.11 31.2315C16.8464 31.0558 16.6408 30.8059 16.5194 30.5134C16.3979 30.2209 16.366 29.8989 16.4276 29.5882C16.4893 29.2775 16.6418 28.9921 16.8657 28.7681C17.0897 28.5441 17.3751 28.3916 17.6858 28.33C17.9965 28.2683 18.3185 28.3003 18.611 28.4217C18.9036 28.5432 19.1535 28.7487 19.3291 29.0123C19.5047 29.2759 19.5982 29.5857 19.5976 29.9025C19.5969 30.3259 19.4284 30.7318 19.1289 31.0313C18.8295 31.3307 18.4236 31.4992 18.0001 31.5Z"
        fill="black" />
</svg>