<svg width="31" height="31" viewBox="0 0 31 31" fill="none" xmlns="http://www.w3.org/2000/svg">
    <g clip-path="url(#clip0_8694_5896)">
        <path
            d="M15.2596 30.5192C23.6872 30.5192 30.5192 23.6872 30.5192 15.2596C30.5192 6.83195 23.6872 0 15.2596 0C6.83195 0 0 6.83195 0 15.2596C0 23.6872 6.83195 30.5192 15.2596 30.5192Z"
            fill="#DA0000" />
        <path
            d="M25.0084 10.3627C24.7756 9.48781 24.0861 8.7983 23.2089 8.56319C21.6219 8.13818 15.2604 8.13818 15.2604 8.13818C15.2604 8.13818 8.89882 8.13818 7.31182 8.56319C6.43694 8.7983 5.74743 9.48555 5.51232 10.3627C5.08731 11.9497 5.08731 15.2593 5.08731 15.2593C5.08731 15.2593 5.08731 18.569 5.51232 20.156C5.74517 21.0308 6.43468 21.7204 7.31182 21.9555C8.89882 22.3805 15.2604 22.3805 15.2604 22.3805C15.2604 22.3805 21.6219 22.3805 23.2089 21.9555C24.0838 21.7204 24.7733 21.0331 25.0084 20.156C25.4334 18.569 25.4334 15.2593 25.4334 15.2593C25.4334 15.2593 25.4334 11.9497 25.0084 10.3627ZM13.2258 18.3112V12.2074L18.5112 15.2593L13.2258 18.3112Z"
            fill="white" />
    </g>
    <defs>
        <clipPath id="clip0_8694_5896">
            <rect width="30.5192" height="30.5192" fill="white" />
        </clipPath>
    </defs>
</svg>