<svg width="19" height="19" viewBox="0 0 19 19" fill="none" xmlns="http://www.w3.org/2000/svg">
    <path
        d="M14.6846 13.3891L18.6076 17.3121L17.3121 18.6076L13.3891 14.6846C11.9786 15.8131 10.1897 16.4882 8.2441 16.4882C3.69336 16.4882 0 12.7948 0 8.2441C0 3.69336 3.69336 0 8.2441 0C12.7948 0 16.4882 3.69336 16.4882 8.2441C16.4882 10.1897 15.8131 11.9786 14.6846 13.3891ZM12.8468 12.7095C13.9669 11.5551 14.6562 9.98049 14.6562 8.2441C14.6562 4.70143 11.7868 1.83202 8.2441 1.83202C4.70143 1.83202 1.83202 4.70143 1.83202 8.2441C1.83202 11.7868 4.70143 14.6562 8.2441 14.6562C9.98049 14.6562 11.5551 13.9669 12.7095 12.8468L12.8468 12.7095ZM7.32809 7.32809V4.58005H9.16011V7.32809H11.9081V9.16011H9.16011V11.9081H7.32809V9.16011H4.58005V7.32809H7.32809Z"
        fill="white" />
</svg>