<svg width="243" height="31" viewBox="0 0 243 31" fill="none" xmlns="http://www.w3.org/2000/svg">
    <path
        d="M160.194 9.52406L159.425 19.4159H152.535L160.194 9.52406ZM158.591 6.10352e-05L134.558 30.0171H144.193L147.333 26.0564H158.979L158.768 30.0171H168.411L169.816 6.10352e-05H158.584H158.591Z"
        fill="#F06724" />
    <path
        d="M213.876 0.184143L210.704 7.56032H220.628L210.986 30.0173H220.274L229.916 7.56032H239.84L243 0.184143H213.876Z"
        fill="#F06724" />
    <path
        d="M188.359 7.56032H198.684L199.183 8.38135L197.311 13.012L196.149 13.833H185.83L188.365 7.56032H188.359ZM182.145 0.184143L170.079 30.0173H179.282L183.124 20.513H186.953L189.686 30.0173H199.761L196.904 20.513H199.4L205.101 16.7034L210.455 3.46828L208.451 0.190711H182.145V0.184143Z"
        fill="#F06724" />
    <path
        d="M112.442 6.10352e-05L109.487 7.42221H119.214H128.331H138.059L141.014 6.10352e-05H124.108H112.442Z"
        fill="white" />
    <mask id="mask0_8694_6493" style="mask-type:luminance" maskUnits="userSpaceOnUse" x="109" y="0"
        width="33" height="8">
        <path
            d="M112.442 6.10352e-05L109.487 7.42221H119.214H128.331H138.059L141.014 6.10352e-05H124.108H112.442Z"
            fill="white" />
    </mask>
    <g mask="url(#mask0_8694_6493)">
        <path
            d="M112.442 6.10352e-05L109.487 7.42221H119.214L110.216 30.0171H119.333L128.331 7.42221H138.059L141.014 6.10352e-05H112.442Z"
            fill="white" />
    </g>
    <mask id="mask1_8694_6493" style="mask-type:luminance" maskUnits="userSpaceOnUse" x="107" y="0"
        width="42" height="31">
        <path
            d="M107.857 30.0171L120.081 6.10352e-05H146.722L148.751 3.29734L143.326 16.6178L137.552 20.4537H135.024H124.948H121.066L117.171 30.0171H107.857Z"
            fill="white" />
    </mask>
    <g mask="url(#mask1_8694_6493)">
        <path d="M109.184 -6.73225L94.1166 30.0173H103.43L118.498 -6.73225H109.184Z" fill="#F06724" />
        <path
            d="M126.373 7.42228H136.83L137.336 8.24988L135.437 12.9068L134.255 13.7344H123.805L126.373 7.42228ZM120.081 0.00012207L107.857 30.0172H117.171L121.066 20.4537H124.941L127.707 30.0172H137.907L135.017 20.4537H137.546L143.319 16.6179L148.745 3.2974L146.715 0.00012207H120.074H120.081Z"
            fill="#F06724" />
        <path
            d="M154.347 0.00012207L142.13 30.0172H169.021L172.042 22.595H154.466L156.094 18.5949H171.563L174.486 11.4224H159.017L160.646 7.42228H178.223L181.244 0.00012207H154.347Z"
            fill="#F06724" />
        <path
            d="M211.222 -155.983V227.276L224.621 266.331V-116.935L-43.7519 -132.955H629.759L607.526 -172.003H-51.2989L211.222 -155.983Z"
            stroke="white" stroke-width="5.25462" stroke-miterlimit="10" />
    </g>
    <path
        d="M9.1102 18.0168H19.4618L20.2894 18.8444V21.7738L19.4618 22.6014H9.1102V18.0234V18.0168ZM9.1102 7.42215H19.4618L20.2894 8.24976V11.1792L19.4618 12.0068H9.1102V7.42872V7.42215ZM0 0V30.017H26.1812L29.4784 26.7198V16.6177L27.5408 15.0085L29.4784 13.3993V3.29728L26.1812 0H0Z"
        fill="white" />
    <path
        d="M98.7475 30.0171H107.858V11.5208H98.7475V30.0171ZM89.2629 7.42221H109.881L113.322 6.10352e-05H89.2629V7.42221Z"
        fill="white" />
    <path d="M56.106 11.5209H44.2568V18.503H56.106V11.5209Z" fill="white" />
    <path
        d="M41.8989 22.6541V6.98214H56.1061V6.10352e-05H41.8989H32.4077V6.98214V22.6541V30.0171H41.8989H56.1061V22.6541H41.8989Z"
        fill="white" />
    <path
        d="M59.5018 6.10352e-05V18.5949H76.5268L77.3544 19.4225V21.7739L76.5268 22.5949H59.7055V30.0171H83.1673L86.4646 26.7198V14.6408L83.1673 11.4223H68.612V7.42221H86.261V6.10352e-05H59.5018Z"
        fill="white" />
</svg>