<svg width="210" height="78" viewBox="0 0 210 78" fill="none" xmlns="http://www.w3.org/2000/svg">
    <g clip-path="url(#clip0_8670_7140)">
        <rect width="290" height="78" fill="#005CA9" />
        <path d="M167.159 -0.254639H45.6913V78.536H167.159V-0.254639Z" fill="#005CA9" />
        <path
            d="M73.6041 68.6603H139.266V9.62085H73.6041V68.6603ZM76.2337 11.9972H136.637V66.3034H76.2337V11.9972Z"
            fill="white" />
        <path
            d="M89.4009 52.0646C89.8684 51.5192 90.3358 50.9933 90.8033 50.4869H101.497L97.8156 58.4146H106.561L111.061 57.3238C111.704 59.0185 113.632 59.7002 120.605 57.1875C121.911 59.7976 125.202 59.0574 128.806 57.2849L129.819 55.2201C127.52 56.272 124.676 57.3043 124.151 56.0967C124.696 55.9214 126.449 55.5708 127.89 54.5384C129.332 53.506 129.195 50.9349 126.157 50.8959C122.884 50.857 120.489 52.7853 120.119 55.6487L118.658 56.1356C117.801 56.3889 117.645 55.9603 117.878 55.5902L119.924 51.227H121.891L122.242 50.4674H132.351L132.857 49.4155H122.748L123.118 48.6559H121.17L123.177 44.4096H116.457L114.489 48.6559H112.795L112.424 49.4155H110.457L112.717 44.7602C113.691 42.8123 113.535 41.4488 112.58 40.6892C111.373 39.7347 105.14 37.4557 97.6792 42.0332C94.3289 44.0979 91.4851 46.4353 88.8555 49.3961H82.5639L81.8042 50.4479H87.94C85.1935 53.7203 82.6223 57.7329 79.8369 62.8363H131.474L132.702 60.1872H83.6937C83.6937 60.2261 86.4401 55.5513 89.4009 52.0646ZM124.969 52.6295C126.196 52.0841 126.605 53.3307 125.767 53.8567C125.241 54.1683 124.54 54.3826 123.742 54.5774C123.742 54.5774 123.566 53.4281 124.969 52.6295ZM109.99 50.4869H111.938L111.587 51.2465H113.262L111.197 55.6487L107.107 56.6616L109.99 50.4869ZM98.1272 45.1887C101.653 43.8057 103.581 45.6367 102.899 47.4677L102.023 49.435H91.8552C93.8615 47.5066 95.8872 46.0652 98.1272 45.1887Z"
            fill="white" />
        <path fill-rule="evenodd" clip-rule="evenodd"
            d="M131.26 57.6941H131.513L131.942 58.3953H132.253L131.786 57.6746C132.039 57.6551 132.215 57.5188 132.215 57.2266C132.215 56.8954 132 56.7591 131.611 56.7591H130.987V58.3953H131.26V57.6941ZM131.26 57.4603V56.9734H131.591C131.747 56.9734 131.961 56.9928 131.961 57.1876C131.961 57.4214 131.786 57.4408 131.572 57.4408H131.26V57.4603ZM133.033 57.5382C133.033 56.6422 132.351 56.0579 131.552 56.0579C130.754 56.0579 130.072 56.6422 130.072 57.5382C130.072 58.3758 130.695 59.0186 131.552 59.0186C132.351 59.0186 133.033 58.4342 133.033 57.5382ZM132.721 57.5382C132.721 58.2589 132.215 58.7654 131.572 58.7654C130.851 58.7654 130.403 58.22 130.403 57.5382C130.403 56.8175 130.909 56.3111 131.572 56.3111C132.215 56.3306 132.721 56.8175 132.721 57.5382Z"
            fill="white" />
    </g>
    <defs>
        <clipPath id="clip0_8670_7140">
            <rect width="210" height="78" rx="16" fill="white" />
        </clipPath>
    </defs>
</svg>