<svg width="210" height="78" viewBox="0 0 210 78" fill="none" xmlns="http://www.w3.org/2000/svg">
    <g clip-path="url(#clip0_8670_7135)">
        <rect width="290" height="78" fill="#D9D9D9" />
        <g clip-path="url(#clip1_8670_7135)">
            <path d="M0.00427246 0V78H209.996V0H0.00427246Z" fill="#FF9900" />
            <path
                d="M186.301 34.8429C186.159 34.2966 185.944 33.68 185.778 33.3716C185.778 33.3716 185.873 33.276 186.064 33.3951C186.253 33.5142 187.467 34.3443 187.467 34.3443C188.087 35.2469 188.467 38.9503 188.491 40.2801C187.919 40.0187 187.11 39.568 186.586 39.0684L186.301 34.8429ZM182.635 31.3997C181.635 30.3079 180.802 29.2864 179.992 28.0768C180.516 27.0786 180.898 24.4433 180.659 23.4228C180.564 23.1135 179.707 21.974 179.564 21.8082C179.349 21.5945 178.66 20.811 178.326 20.811C178.255 20.811 178.183 20.8355 178.159 20.8589L178.255 21.737C177.326 22.3302 176.113 23.138 175.017 23.9449C175.017 24.2532 175.04 24.7273 175.065 24.8952C175.231 25.0367 175.422 25.1558 175.636 25.228C176.065 25.1558 177.398 24.823 177.754 24.8707L176.446 26.8416L174.946 27.91L173.066 27.317C172.946 27.2925 172.827 27.317 172.756 27.4116L171.375 28.9084C171.304 28.9785 171.256 29.0497 171.256 29.2157L171.208 30.9028C171.208 30.9028 171.185 31.1632 171.185 31.448C171.185 32.6589 171.731 33.2285 171.731 33.2285L172.637 31.9221C172.517 31.7329 172.303 31.2109 172.255 30.9739C172.255 30.926 172.279 29.525 172.279 29.525L173.16 28.8829L175.493 30.5222C175.493 30.5222 176.136 31.7095 176.756 32.4218C177.16 32.9204 179.182 34.2736 180.159 34.8433C180.255 35.3664 180.469 36.22 180.635 36.6707L183.493 39.5919L181.802 41.7043C181.207 42.0849 180.635 42.7735 180.683 43.4146H182.636L182.85 42.2984L185.183 39.711C185.302 39.5687 185.302 39.4964 185.231 39.2827L184.564 37.0514C184.897 36.6709 185.61 35.7227 185.61 34.5821C185.61 32.5158 183.349 31.9939 182.635 31.3997ZM172.113 27.1497C172.041 27.1742 170.304 27.6483 170.304 27.6483C170.304 27.6483 169.494 27.9577 169.137 28.1946C168.78 28.4328 168.374 28.8356 168.351 29.0493L169.898 29.4053C170.137 29.1437 170.399 28.86 170.636 28.6685L170.993 28.5038L172.279 27.1972C172.279 27.1974 172.231 27.1263 172.113 27.1497ZM179.421 40.494L181.611 38.4051L182.516 39.3066L180.159 41.301C179.969 41.5379 179.826 41.9184 179.707 42.1556H177.969C178.065 41.5145 178.969 40.7075 179.421 40.494ZM191.063 44.9096H167.803V44.1495H191.063V44.9096ZM125.88 34.035C125.88 32.6116 125.427 31.4943 124.19 31.4943C122.951 31.4943 122.451 32.6114 122.451 34.035V43.4142H123.905V44.9098H115.953V43.4142H117.428V30.4982H115.953V29.0493H122.213V31.4708H122.285C122.879 30.1421 124.261 28.742 126.475 28.742C128.808 28.742 130.236 30.1653 130.689 32.0406C130.856 32.7774 130.904 33.9881 130.904 34.6047V43.4142H132.807V44.9098H125.88V34.035ZM93.5741 34.035C93.5741 32.6116 93.1222 31.4943 91.8847 31.4943C90.6463 31.4943 90.1464 32.6114 90.1464 34.035V43.4142H91.5991V44.9098H83.6471V43.4142H85.1233V30.4982H83.6471V29.0493H89.9086V31.4708H89.9791C90.5749 30.1421 91.956 28.742 94.1699 28.742C96.5029 28.742 97.9311 30.1653 98.3829 32.0406C98.5504 32.7774 98.5982 33.9881 98.5982 34.6047V43.4142H100.503V44.9098H93.5739L93.5741 34.035ZM139.545 30.4982V42.2266C139.545 43.0345 140.069 43.225 140.568 43.225C141.044 43.225 141.498 43.059 141.498 43.059V44.5058C141.498 44.5058 140.544 45.1003 138.427 45.1003C135.951 45.1003 134.498 43.8883 134.498 41.3242V30.4984H132.807V29.429C134.688 27.9342 136.879 26.2229 138.616 24.7761H139.545V29.0495H141.974V30.4984L139.545 30.4982ZM40.3187 20.8108C40.3187 20.8108 44.1525 24.6325 45.9132 26.6032V28.1C44.2719 26.3663 40.8666 24.9172 37.7 24.9172C30.5344 24.9172 26.0347 30.3077 26.0347 36.9794C26.0347 43.6267 30.2958 49.0172 37.7 49.0172C41.3898 49.0172 44.3422 47.2834 45.9846 45.504V46.9274C43.7464 49.9909 39.6526 51.9853 34.5581 51.9853C25.4389 51.9853 19.155 45.3849 19.155 36.9796C19.155 28.5754 26.1308 21.9972 34.5581 21.9972C36.7015 21.9972 38.6295 22.3532 40.3189 22.9475L40.3187 20.8108ZM113.548 40.6841C112.833 41.5145 111.715 42.1554 110.048 42.1554C108.595 42.1554 106.358 41.3476 106.263 37.6683H114.762C114.786 37.3834 114.809 36.8126 114.809 36.5275C114.809 32.0649 112.977 28.742 108.191 28.742C103.383 28.742 100.93 32.4211 100.93 37.0039C100.93 41.5854 103.383 45.1945 108.191 45.1945C111.287 45.1945 113.238 43.7466 114.382 41.4663L113.548 40.6841ZM106.264 36.1248C106.264 31.946 106.597 30.3791 108.024 30.3791C109.478 30.3791 109.764 31.8981 109.81 36.1248H106.264ZM36.1768 36.9317C36.1768 32.0885 36.6286 29.9518 38.271 29.9518C39.9134 29.9518 40.3663 32.0885 40.3663 36.9317C40.3663 41.7761 39.9134 43.9116 38.271 43.9116C36.6286 43.9116 36.1768 41.7761 36.1768 36.9317ZM30.2723 36.9796C30.2723 41.7761 33.2234 45.67 38.2712 45.67C43.3178 45.67 46.2702 41.7761 46.2702 36.9796C46.2702 32.1831 43.3178 28.2905 38.2712 28.2905C33.2234 28.2903 30.2723 32.1831 30.2723 36.9796ZM57.5304 34.035C57.5304 32.6116 57.0786 31.4943 55.841 31.4943C54.6037 31.4943 54.1027 32.6116 54.1027 34.035V43.4142H55.5554V44.9098H47.6035V43.4142H49.0796V30.4984H47.6035V29.0495H53.8649V31.4711H53.9363C54.531 30.1423 55.9124 28.7422 58.126 28.7422C60.4591 28.7422 61.8882 30.1656 62.3392 32.0408C62.5054 32.7776 62.5535 33.9883 62.5535 34.6049V43.4144H64.4593V44.91H57.5304V34.035ZM75.3145 24.8462C75.3145 26.2472 76.5764 27.1742 78.3862 27.1742C80.1949 27.1742 81.4568 26.2472 81.4568 24.8462C81.4568 23.4471 80.1949 22.5203 78.3862 22.5203C76.5764 22.5203 75.3145 23.4471 75.3145 24.8462ZM71.1961 30.4984V42.2266C71.1961 43.0345 71.7195 43.225 72.2202 43.225C72.6956 43.225 73.1474 43.059 73.1474 43.059V44.5058C73.1474 44.5058 72.1967 45.1003 70.078 45.1003C67.6022 45.1003 66.1493 43.8883 66.1493 41.3244V30.4984H64.4589V29.429C66.3401 27.9342 68.5302 26.2229 70.2664 24.7761H71.1959V29.0495H73.1474V30.4984H71.1961ZM164.067 43.4142H166.018V44.9098H159.042V24.6325H157.305V23.1857H164.067V43.4142H164.067ZM150.639 37.0508C150.496 36.9083 150.186 36.7182 149.543 36.7182C148.044 36.7182 147.711 38.1916 147.711 39.7106C147.711 41.2064 148.163 42.4172 149.448 42.4172C150.067 42.4172 150.449 42.1556 150.639 41.9419V37.0508ZM150.854 43.0102H150.781C149.853 44.3155 148.616 45.1947 146.711 45.1947C144.116 45.1947 142.497 42.9868 142.497 40.3515C142.497 37.1699 144.758 35.151 148.377 35.151C149.853 35.151 150.638 35.4849 150.638 35.4849V34.4858C150.638 32.5639 149.448 31.5422 147.711 31.5422C145.305 31.5422 144.069 33.3951 144.069 33.3951L143.187 32.3267C144.782 29.8562 147.233 28.7422 149.519 28.7422C153.378 28.7422 155.662 31.0202 155.662 34.4858V43.4142H157.28V44.9098H150.854V43.0102ZM74.3862 44.9096V43.414H75.8389V30.4982H74.3862V29.0493H80.862V43.414H82.3382V44.9096"
                fill="black" />
        </g>
    </g>
    <defs>
        <clipPath id="clip0_8670_7135">
            <rect width="210" height="78" rx="16" fill="white" />
        </clipPath>
        <clipPath id="clip1_8670_7135">
            <rect width="210" height="78" fill="white" />
        </clipPath>
    </defs>
</svg>